<?xml version="1.0" encoding="UTF-8"?>
<svg id="Capa_1" data-name="Capa 1" xmlns="http://www.w3.org/2000/svg" viewBox="0 0 1417.32 566.93">
  <defs>
    <style>
      .cls-1 {
        fill: #1d1d1b;
      }
    </style>
  </defs>
  <g>
    <path class="cls-1" d="M473.2,296.06c-5.73,7.5-8.6,15.6-8.6,24.31,0,10.36,4.35,18.41,13.06,24.14,5.07,3.42,10.83,5.13,17.28,5.13s12.04-1.27,16.78-3.8c8.93-4.63,13.94-12.4,15.05-23.31.11-.77.17-1.54.17-2.32,0-4.08-1.13-8.49-3.39-13.23-2.26-4.74-5.93-9.09-11-13.06l-29.76-23.48c-6.51-5.07-9.76-11.63-9.76-19.68s2.59-14.85,7.77-20.42c5.18-5.56,12.18-8.35,21-8.35,4.41,0,9.2.55,14.39,1.65h6.61l.33,20.34h-1.65c-.11-5.29-2.01-9.45-5.7-12.48-3.69-3.03-8.32-4.55-13.89-4.55s-10.23,1.85-13.97,5.54c-3.75,3.69-5.62,8.43-5.62,14.22s2.42,10.61,7.28,14.47l30.59,24.14c12.12,9.59,18.19,21.17,18.19,34.72,0,10.14-4.03,18.85-12.07,26.13-6.94,6.28-16.2,9.42-27.78,9.42-7.06,0-13.34-1.32-18.85-3.97-10.36-4.85-16.59-13.12-18.69-24.8-.33-1.76-.5-3.99-.5-6.7s.77-6.39,2.31-11.08c1.54-4.68,4.52-9.4,8.93-14.14l1.49,1.16Z"/>
    <path class="cls-1" d="M662.7,338.39h1.32v1.65h-37.2v-1.65h1.49c2.31,0,4.05-.74,5.21-2.23,1.16-1.49,1.74-2.89,1.74-4.22s-.22-2.65-.66-3.97l-10.58-28.11h-44.65l-11.08,28.28c-.44,1.32-.66,2.62-.66,3.89s.58,2.65,1.74,4.13c1.16,1.49,2.89,2.23,5.21,2.23h1.49v1.65h-33.24v-1.65h1.49c2.75,0,5.46-.88,8.1-2.65,2.65-1.76,4.79-4.35,6.45-7.77l37.37-88.96c4.08-8.93,6.12-14.61,6.12-17.03h1.49l44.31,105.99c1.54,3.42,3.64,6.01,6.28,7.77,2.65,1.76,5.4,2.65,8.27,2.65ZM581.34,294.9h40.68l-19.84-53.08-20.83,53.08Z"/>
    <path class="cls-1" d="M747.85,239.01c0-2.65-.94-4.93-2.81-6.86-1.88-1.93-4.08-2.95-6.61-3.06h-31.42v99.05c.11,2.87,1.18,5.29,3.22,7.28,2.04,1.98,4.49,2.98,7.36,2.98h2.15v1.65h-36.21v-1.65h2.15c2.87,0,5.32-.99,7.36-2.98,2.04-1.98,3.11-4.35,3.22-7.11v-99.21h-31.42c-2.65.11-4.88,1.13-6.7,3.06-1.82,1.93-2.73,4.22-2.73,6.86v2.81l-1.65.17v-20.83c1.65.66,4.52,1.32,8.6,1.98,4.08.66,7.83.99,11.24.99h55.89c5.4,0,9.89-.41,13.48-1.24,3.58-.83,5.76-1.41,6.53-1.74v20.83l-1.65-.17v-2.81Z"/>
    <path class="cls-1" d="M905.27,225.95h-2.31c-3.31,0-6.42.91-9.34,2.73-2.92,1.82-5.37,4.11-7.36,6.86l-32.57,52.91v39.52c0,2.87,1.02,5.32,3.06,7.36,2.04,2.04,4.55,3.06,7.52,3.06h1.98v1.65h-36.05v-1.65h2.15c2.87,0,5.32-.99,7.36-2.98,2.04-1.98,3.11-4.41,3.22-7.28v-39.85l-31.58-52.75c-1.65-2.65-4-4.9-7.03-6.78-3.03-1.87-6.2-2.81-9.51-2.81h-2.32v-1.65h40.68v1.65h-2.15c-2.43,0-4.3,1.1-5.62,3.31-.66,1.21-.99,2.4-.99,3.55s.27,2.29.83,3.39l24.8,46.3,26.46-46.46c.55-1.1.83-2.2.83-3.31s-.39-2.26-1.16-3.47c-1.32-2.2-3.2-3.31-5.62-3.31h-1.98v-1.65h36.71v1.65Z"/>
    <path class="cls-1" d="M921.81,238.6c11.79-11.08,27.09-16.62,45.89-16.62s34.09,5.54,45.89,16.62c11.79,11.08,17.69,25.6,17.69,43.57s-5.9,32.49-17.69,43.57c-11.8,11.08-27.09,16.62-45.89,16.62s-34.09-5.54-45.89-16.62c-11.8-11.08-17.69-25.6-17.69-43.57s5.9-32.49,17.69-43.57ZM930.82,322.19c9.31,10.14,21.58,15.21,36.79,15.21s27.47-5.07,36.79-15.21c9.31-10.14,13.97-23.48,13.97-40.02s-4.66-29.87-13.97-40.02c-9.32-10.14-21.58-15.21-36.79-15.21s-27.48,5.07-36.79,15.21c-9.32,10.14-13.97,23.48-13.97,40.02s4.66,29.88,13.97,40.02Z"/>
    <path class="cls-1" d="M1065.75,325.66c-10.97-11.02-16.45-25.52-16.45-43.49s5.48-32.49,16.45-43.57c10.97-11.08,25.27-16.62,42.91-16.62,15.21,0,28.61,3.75,40.18,11.24l3.31,23.32h-1.49c-2.43-9.48-7.3-16.78-14.63-21.91-7.33-5.13-16.45-7.69-27.37-7.69-14,0-25.33,5.07-33.98,15.21-8.66,10.14-12.98,23.48-12.98,40.02s4.32,29.85,12.98,39.93c8.65,10.09,19.98,15.19,33.98,15.3,7.17,0,13.97-1.27,20.42-3.8,6.45-2.53,12.1-6.06,16.95-10.58v-29.27c0-2.42-.74-4.27-2.23-5.54-1.49-1.27-3.55-1.9-6.2-1.9h-2.65v-1.65h32.41v1.65h-2.48c-2.76,0-4.85.64-6.28,1.9-1.43,1.27-2.1,3.12-1.98,5.54v27.28c-2.87,3.75-6.28,7.11-10.25,10.09-3.97,2.98-9.29,5.6-15.96,7.85-6.67,2.26-13.92,3.39-21.74,3.39-17.64-.11-31.94-5.68-42.91-16.7Z"/>
    <path class="cls-1" d="M1288.89,338.39h1.32v1.65h-37.21v-1.65h1.49c2.32,0,4.05-.74,5.21-2.23,1.16-1.49,1.74-2.89,1.74-4.22s-.22-2.65-.66-3.97l-10.58-28.11h-44.65l-11.08,28.28c-.44,1.32-.66,2.62-.66,3.89s.58,2.65,1.74,4.13c1.16,1.49,2.89,2.23,5.21,2.23h1.49v1.65h-33.24v-1.65h1.49c2.75,0,5.46-.88,8.1-2.65,2.65-1.76,4.79-4.35,6.45-7.77l37.37-88.96c4.08-8.93,6.12-14.61,6.12-17.03h1.49l44.32,105.99c1.54,3.42,3.64,6.01,6.28,7.77,2.65,1.76,5.4,2.65,8.27,2.65ZM1207.54,294.9h40.68l-19.84-53.08-20.83,53.08Z"/>
  </g>
  <path class="cls-1" d="M316.95,311.25l108.28-2.21c-.03-1.36-.07-2.72-.14-4.07-.07-1.48-.16-2.94-.27-4.41l-111.07,8.32-5.88-4.35-7.91,5.38-10.08.76c-.07-.94-.18-1.87-.37-2.77l132.3-28.31c-.16-.73-.31-1.46-.48-2.19-.46-2.04-.98-4.06-1.52-6.06l-130.59,35.46c-.24-.91-.53-1.8-.89-2.65l124.53-52.83c-.05-.12-.1-.25-.16-.37-1.06-2.48-2.19-4.93-3.38-7.34l-121.48,59.52c-.41-.84-.86-1.66-1.38-2.43l112.24-75.41c-1.58-2.35-3.22-4.65-4.93-6.9l-107.98,81.41c-.56-.75-1.16-1.46-1.81-2.13l95.92-95.27c-1.99-2.01-4.05-3.95-6.15-5.84l-90.6,100.35c-.69-.63-1.41-1.22-2.18-1.74l76.15-111.69c-2.33-1.59-4.71-3.13-7.13-4.59l-69.98,115.68c-.79-.48-1.61-.92-2.47-1.3l53.64-124.1c-2.17-.94-4.37-1.83-6.59-2.68-.43-.16-.86-.31-1.28-.47l-46.82,126.84c-.87-.32-1.76-.59-2.67-.8l29.18-131.99c-1.74-.38-3.48-.74-5.24-1.06-1.03-.19-2.06-.37-3.09-.54l-21.97,133.38c-.91-.15-1.83-.24-2.77-.27l3.67-135.11c-1.19-.03-2.39-.05-3.59-.05-.22,0-.43,0-.65,0-1.42,0-2.83.03-4.24.06l3.67,135.1c-.94.03-1.87.12-2.77.27l-21.97-133.38c-2.8.46-5.58.98-8.33,1.59l29.18,131.99c-.92.2-1.8.47-2.67.79l-46.82-126.84c-2.66.98-5.28,2.04-7.87,3.16l53.64,124.09c-.77.33-1.5.73-2.22,1.15l-.54-.35-69.68-115.19c-2.42,1.46-4.8,2.99-7.13,4.58l74.28,108.96-10.58-6.9-80.34-88.98c-2.1,1.89-4.14,3.84-6.13,5.85l84.44,83.87-4.2,3.06-94.12-70.96c-1.7,2.25-3.34,4.55-4.92,6.9l97.27,65.35-4.77,3.47-103.12-50.53c-1.25,2.53-2.42,5.1-3.53,7.71l104.55,44.35-5.92,4.31-105.58-28.67c-.74,2.72-1.4,5.47-2,8.24l104.83,22.43-8.22,5.98-99.65-7.47c-.21,2.8-.35,5.63-.41,8.47l95.98,1.96-13.32,9.7-81.69,9.49c.32,2.82.71,5.62,1.18,8.4l73.2-12.56-28.12,20.48-40.14,12.68c.85,2.71,1.78,5.38,2.77,8.02l18.54-6.99-16.49,12.01c.39.93.78,1.85,1.18,2.76l118.3-86.14,46.69,30.48,16.22-11.05,100.68,74.49c.45-.89.89-1.77,1.33-2.67l-40.67-30.09,46.16,17.4c.91-2.4,1.76-4.83,2.55-7.29.08-.24.15-.49.23-.74l-63.31-20-21.7-16.05,89.98,15.44c.33-1.93.63-3.88.89-5.83.11-.85.21-1.71.31-2.57l-96.87-11.25-10.42-7.71ZM289.96,312.14c0-.11-.02-.22-.02-.33l7.48-.15-4.81,3.27-2.65-.31-.16-.1c.09-.78.15-1.57.15-2.38Z"/>
</svg>